<svg width="247" height="65" viewBox="0 0 247 65" fill="none" xmlns="http://www.w3.org/2000/svg">
<path d="M13.8 13.23V11.01C13.8 7.35 13.62 5.04 13.26 4.08C12.86 2.98 12.29 2.3 11.55 2.04C11.13 1.88 10.62 1.8 10.02 1.8C9.42002 1.8 8.90002 1.88 8.46002 2.04C8.04002 2.2 7.69002 2.48 7.41002 2.88C7.13002 3.28 6.90002 3.7 6.72002 4.14C6.56002 4.58 6.43002 5.2 6.33002 6C6.21002 7.16 6.15002 8.87 6.15002 11.13V13.29C6.15002 15.73 6.24002 17.47 6.42002 18.51C6.62002 19.53 6.86002 20.26 7.14002 20.7C7.76002 21.68 8.72002 22.17 10.02 22.17C11.6 22.17 12.62 21.51 13.08 20.19C13.56 18.85 13.8 16.53 13.8 13.23ZM9.96002 22.8C6.62002 22.8 4.12002 21.9 2.46002 20.1C0.82002 18.28 1.95652e-05 15.66 1.95652e-05 12.24C1.95652e-05 8.8 0.88002 6.1 2.64002 4.14C4.42002 2.16 6.93002 1.17 10.17 1.17C13.41 1.17 15.85 2.11 17.49 3.99C19.15 5.85 19.98 8.5 19.98 11.94C19.98 15.38 19.14 18.05 17.46 19.95C15.8 21.85 13.3 22.8 9.96002 22.8ZM31.5314 9.06C30.7914 9.06 30.1414 9.54 29.5814 10.5C29.0214 11.46 28.7414 12.6 28.7414 13.92V21.96H30.8714V22.5H21.5114V21.96H23.1614V8.76H21.5114V8.22H28.7414V11.1C29.0014 10.08 29.5014 9.3 30.2414 8.76C30.9814 8.2 31.8214 7.92 32.7614 7.92C33.7014 7.92 34.4614 8.19 35.0414 8.73C35.6414 9.25 35.9414 10 35.9414 10.98C35.9414 11.94 35.7214 12.68 35.2814 13.2C34.8414 13.72 34.1614 13.98 33.2414 13.98C32.3414 13.98 31.6714 13.68 31.2314 13.08C30.8114 12.48 30.7614 11.65 31.0814 10.59H32.1614C32.6614 9.57 32.4514 9.06 31.5314 9.06ZM48.102 6.66L48.942 6.15C49.062 5.53 48.822 5.22 48.222 5.22C47.362 5.22 46.932 5.88 46.932 7.2C46.932 7.72 47.002 8.32 47.142 9C48.662 10.02 49.422 11.33 49.422 12.93C49.422 14.51 48.872 15.74 47.772 16.62C46.672 17.5 45.182 17.94 43.302 17.94C42.522 17.94 41.712 17.86 40.872 17.7C39.992 18.26 39.552 18.68 39.552 18.96C39.552 19.24 40.192 19.38 41.472 19.38H44.532C49.072 19.38 51.342 21.01 51.342 24.27C51.342 26.03 50.652 27.42 49.272 28.44C47.912 29.48 45.782 30 42.882 30C37.942 30 35.472 28.93 35.472 26.79C35.472 25.63 36.242 24.83 37.782 24.39L39.582 25.2C39.422 25.78 39.342 26.33 39.342 26.85C39.342 28.57 40.622 29.43 43.182 29.43C44.742 29.43 45.942 29.14 46.782 28.56C47.622 27.98 48.042 27.26 48.042 26.4C48.042 25.54 47.782 24.96 47.262 24.66C46.762 24.38 45.752 24.24 44.232 24.24H41.322C39.702 24.24 38.542 23.97 37.842 23.43C37.142 22.89 36.792 22.23 36.792 21.45C36.792 20.65 37.042 19.99 37.542 19.47C38.042 18.93 38.932 18.27 40.212 17.49C37.892 16.83 36.732 15.31 36.732 12.93C36.732 11.43 37.272 10.22 38.352 9.3C39.432 8.38 41.052 7.92 43.212 7.92C44.512 7.92 45.622 8.17 46.542 8.67C46.422 8.13 46.362 7.64 46.362 7.2C46.362 6.08 46.662 5.27 47.262 4.77C47.862 4.27 48.532 4.02 49.272 4.02C50.012 4.02 50.602 4.22 51.042 4.62C51.502 5 51.732 5.53 51.732 6.21C51.732 6.89 51.552 7.4 51.192 7.74C50.832 8.06 50.392 8.22 49.872 8.22C49.372 8.22 48.952 8.09 48.612 7.83C48.292 7.55 48.122 7.16 48.102 6.66ZM41.742 12.27V13.89C41.742 15.23 41.852 16.14 42.072 16.62C42.312 17.1 42.662 17.34 43.122 17.34C43.602 17.34 43.942 17.11 44.142 16.65C44.362 16.17 44.472 15.2 44.472 13.74V12.27C44.472 10.71 44.372 9.69 44.172 9.21C43.972 8.71 43.632 8.46 43.152 8.46C42.692 8.46 42.342 8.72 42.102 9.24C41.862 9.74 41.742 10.75 41.742 12.27ZM58.1841 15.45H59.0541V13.14C59.0541 11.24 58.9441 9.97 58.7241 9.33C58.5241 8.67 58.1241 8.34 57.5241 8.34C57.1641 8.34 56.8341 8.44 56.5341 8.64C56.2541 8.82 56.1141 9.08 56.1141 9.42C56.1141 9.74 56.1741 10.07 56.2941 10.41H57.0441C57.2041 10.83 57.2841 11.34 57.2841 11.94C57.2841 12.52 57.0341 13.03 56.5341 13.47C56.0341 13.89 55.4041 14.1 54.6441 14.1C52.9241 14.1 52.0641 13.27 52.0641 11.61C52.0641 9.15 54.1541 7.92 58.3341 7.92C60.7141 7.92 62.3541 8.33 63.2541 9.15C64.1741 9.95 64.6341 11.43 64.6341 13.59V19.68C64.6341 20.72 64.9241 21.24 65.5041 21.24C66.1841 21.24 66.5841 20.21 66.7041 18.15L67.1541 18.18C67.0741 19.94 66.7441 21.15 66.1641 21.81C65.5841 22.47 64.6341 22.8 63.3141 22.8C60.9141 22.8 59.5341 22.06 59.1741 20.58C58.9141 21.34 58.5241 21.9 58.0041 22.26C57.4841 22.62 56.7241 22.8 55.7241 22.8C52.7641 22.8 51.2841 21.59 51.2841 19.17C51.2841 17.75 51.8441 16.78 52.9641 16.26C54.1041 15.72 55.8441 15.45 58.1841 15.45ZM56.9841 19.14C56.9841 20.18 57.0341 20.85 57.1341 21.15C57.2541 21.45 57.4641 21.6 57.7641 21.6C58.0841 21.6 58.3741 21.35 58.6341 20.85C58.9141 20.33 59.0541 19.62 59.0541 18.72V15.93H58.8441C57.6041 15.93 56.9841 16.84 56.9841 18.66V19.14ZM67.5089 8.22H74.7389V10.98C75.0589 10.06 75.5489 9.32 76.2089 8.76C76.8689 8.2 77.8689 7.92 79.2089 7.92C82.3089 7.92 83.8589 9.59 83.8589 12.93V21.96H85.5389V22.5H77.0489V21.96H78.2789V12.21C78.2789 11.01 78.1989 10.24 78.0389 9.9C77.8789 9.54 77.5889 9.36 77.1689 9.36C76.5289 9.36 75.9589 9.78 75.4589 10.62C74.9789 11.46 74.7389 12.48 74.7389 13.68V21.96H76.0289V22.5H67.5089V21.96H69.1589V8.76H67.5089V8.22ZM90.3453 6.15C89.2853 6.15 88.5253 5.88 88.0653 5.34C87.6253 4.8 87.4053 4.13 87.4053 3.33C87.4053 2.53 87.6453 1.87 88.1253 1.35C88.6253 0.829999 89.3753 0.57 90.3753 0.57C91.3753 0.57 92.1353 0.81 92.6553 1.29C93.1753 1.75 93.4353 2.42 93.4353 3.3C93.4353 4.16 93.1853 4.85 92.6853 5.37C92.1853 5.89 91.4053 6.15 90.3453 6.15ZM85.8153 8.22H93.1653V21.96H94.8453V22.5H85.9353V21.96H87.5853V8.76H85.8153V8.22ZM103.857 8.46C102.977 8.46 102.347 8.94 101.967 9.9C101.587 10.86 101.397 12.45 101.397 14.67V16.23C101.397 18.21 101.617 19.63 102.057 20.49C102.497 21.35 103.307 21.78 104.487 21.78C105.667 21.78 106.607 21.38 107.307 20.58C108.007 19.78 108.457 18.87 108.657 17.85L109.197 17.91C108.817 19.63 108.117 20.87 107.097 21.63C106.057 22.41 104.627 22.8 102.807 22.8C100.487 22.8 98.7067 22.18 97.4667 20.94C96.2267 19.68 95.6067 17.85 95.6067 15.45C95.6067 13.03 96.3067 11.17 97.7067 9.87C99.1267 8.57 101.097 7.92 103.617 7.92C105.397 7.92 106.757 8.27 107.697 8.97C108.637 9.65 109.107 10.51 109.107 11.55C109.107 12.59 108.877 13.35 108.417 13.83C107.977 14.31 107.357 14.55 106.557 14.55C105.777 14.55 105.147 14.34 104.667 13.92C104.187 13.5 103.947 12.88 103.947 12.06C103.947 11.7 103.997 11.34 104.097 10.98H105.087C105.227 10.58 105.297 10.22 105.297 9.9C105.297 8.94 104.817 8.46 103.857 8.46ZM126.749 22.2C127.729 22.2 128.349 22.02 128.609 21.66C128.889 21.3 129.029 20.69 129.029 19.83V14.01H127.109V13.35H135.749V14.01H134.579V22.47H134.129C133.769 21.97 133.259 21.72 132.599 21.72C132.319 21.72 131.479 21.9 130.079 22.26C128.699 22.62 127.519 22.8 126.539 22.8C123.279 22.8 120.749 21.92 118.949 20.16C117.169 18.4 116.279 15.76 116.279 12.24C116.279 8.7 117.209 5.97 119.069 4.05C120.949 2.13 123.469 1.17 126.629 1.17C127.849 1.17 129.069 1.33 130.289 1.65C131.529 1.95 132.249 2.1 132.449 2.1C132.649 2.1 132.799 2.06 132.899 1.98C132.999 1.88 133.109 1.72 133.229 1.5H133.559L133.799 8.01H133.259C132.279 6.07 131.289 4.55 130.289 3.45C129.309 2.33 128.209 1.77 126.989 1.77C123.929 1.77 122.399 4.76 122.399 10.74V13.11C122.399 16.11 122.769 18.38 123.509 19.92C124.269 21.44 125.349 22.2 126.749 22.2ZM146.719 16.59V14.04C146.719 12.1 146.609 10.69 146.389 9.81C146.189 8.91 145.709 8.46 144.949 8.46C144.509 8.46 144.149 8.59 143.869 8.85C143.609 9.09 143.419 9.5 143.299 10.08C143.119 10.98 143.029 12.35 143.029 14.19V16.53C143.029 18.71 143.089 20.02 143.209 20.46C143.349 20.9 143.489 21.26 143.629 21.54C143.849 22.02 144.279 22.26 144.919 22.26C145.699 22.26 146.209 21.81 146.449 20.91C146.629 20.27 146.719 18.83 146.719 16.59ZM144.859 22.8C142.359 22.8 140.469 22.16 139.189 20.88C137.909 19.6 137.269 17.77 137.269 15.39C137.269 12.99 137.949 11.15 139.309 9.87C140.689 8.57 142.619 7.92 145.099 7.92C147.579 7.92 149.429 8.52 150.649 9.72C151.869 10.9 152.479 12.71 152.479 15.15C152.479 20.25 149.939 22.8 144.859 22.8ZM163.008 16.59V14.04C163.008 12.1 162.898 10.69 162.678 9.81C162.478 8.91 161.998 8.46 161.238 8.46C160.798 8.46 160.438 8.59 160.158 8.85C159.898 9.09 159.708 9.5 159.588 10.08C159.408 10.98 159.318 12.35 159.318 14.19V16.53C159.318 18.71 159.378 20.02 159.498 20.46C159.638 20.9 159.778 21.26 159.918 21.54C160.138 22.02 160.568 22.26 161.208 22.26C161.988 22.26 162.498 21.81 162.738 20.91C162.918 20.27 163.008 18.83 163.008 16.59ZM161.148 22.8C158.648 22.8 156.758 22.16 155.478 20.88C154.198 19.6 153.558 17.77 153.558 15.39C153.558 12.99 154.238 11.15 155.598 9.87C156.978 8.57 158.908 7.92 161.388 7.92C163.868 7.92 165.718 8.52 166.938 9.72C168.158 10.9 168.768 12.71 168.768 15.15C168.768 20.25 166.228 22.8 161.148 22.8ZM175.697 16.29C175.697 18.39 175.807 19.79 176.027 20.49C176.247 21.17 176.647 21.51 177.227 21.51C177.827 21.51 178.337 21.25 178.757 20.73C179.197 20.21 179.417 19.44 179.417 18.42V11.88C179.417 11.02 179.247 10.29 178.907 9.69C178.567 9.09 178.067 8.79 177.407 8.79C176.747 8.79 176.297 9.23 176.057 10.11C175.817 10.99 175.697 12.53 175.697 14.73V16.29ZM179.807 22.5L179.477 20.4C178.797 22 177.417 22.8 175.337 22.8C173.617 22.8 172.277 22.18 171.317 20.94C170.377 19.7 169.907 17.85 169.907 15.39C169.907 10.41 171.887 7.92 175.847 7.92C177.607 7.92 178.767 8.41 179.327 9.39V0.539998H177.497V-1.78814e-06H184.997V21.96H186.467V22.5H179.807ZM187.304 8.22H194.534V10.98C194.854 10.06 195.344 9.32 196.004 8.76C196.664 8.2 197.664 7.92 199.004 7.92C202.104 7.92 203.654 9.59 203.654 12.93V21.96H205.334V22.5H196.844V21.96H198.074V12.21C198.074 11.01 197.994 10.24 197.834 9.9C197.674 9.54 197.384 9.36 196.964 9.36C196.324 9.36 195.754 9.78 195.254 10.62C194.774 11.46 194.534 12.48 194.534 13.68V21.96H195.824V22.5H187.304V21.96H188.954V8.76H187.304V8.22ZM213.62 22.8C211.04 22.8 209.1 22.14 207.8 20.82C206.52 19.48 205.88 17.63 205.88 15.27C205.88 12.89 206.6 11.07 208.04 9.81C209.5 8.55 211.35 7.92 213.59 7.92C218.13 7.92 220.31 10.2 220.13 14.76H211.67V15.93C211.67 17.89 211.92 19.37 212.42 20.37C212.92 21.37 213.79 21.87 215.03 21.87C217.35 21.87 218.87 20.63 219.59 18.15L220.13 18.24C219.75 19.68 219.06 20.8 218.06 21.6C217.08 22.4 215.6 22.8 213.62 22.8ZM211.7 14.16H214.79V12.69C214.79 11.07 214.69 9.97 214.49 9.39C214.31 8.79 213.93 8.49 213.35 8.49C212.79 8.49 212.37 8.81 212.09 9.45C211.83 10.07 211.7 11.15 211.7 12.69V14.16ZM221.596 22.8V17.43H221.956C222.476 19.17 223.176 20.39 224.056 21.09C224.936 21.79 226.036 22.14 227.356 22.14C229.396 22.14 230.416 21.49 230.416 20.19C230.416 19.63 230.166 19.21 229.666 18.93C228.886 18.49 227.886 18.15 226.666 17.91C225.306 17.55 224.166 17.07 223.246 16.47C222.146 15.75 221.596 14.61 221.596 13.05C221.596 11.49 222.076 10.25 223.036 9.33C223.996 8.39 225.276 7.92 226.876 7.92C227.856 7.92 228.866 8.15 229.906 8.61C230.286 8.77 230.576 8.85 230.776 8.85C230.976 8.85 231.146 8.78 231.286 8.64C231.426 8.5 231.596 8.24 231.796 7.86H232.126V12.45H231.766C230.746 9.85 229.166 8.55 227.026 8.55C226.086 8.55 225.386 8.72 224.926 9.06C224.466 9.38 224.236 9.79 224.236 10.29C224.236 10.59 224.306 10.83 224.446 11.01C224.586 11.17 224.696 11.29 224.776 11.37C224.856 11.45 224.986 11.54 225.166 11.64C225.346 11.72 225.496 11.79 225.616 11.85C225.736 11.89 225.916 11.95 226.156 12.03C226.416 12.11 226.606 12.16 226.726 12.18C228.086 12.52 229.066 12.82 229.666 13.08C230.266 13.32 230.836 13.62 231.376 13.98C232.476 14.74 233.026 15.97 233.026 17.67C233.026 19.35 232.526 20.63 231.526 21.51C230.526 22.37 229.156 22.8 227.416 22.8C226.176 22.8 224.976 22.51 223.816 21.93C223.576 21.77 223.386 21.69 223.246 21.69C222.806 21.69 222.376 22.06 221.956 22.8H221.596ZM234.604 22.8V17.43H234.964C235.484 19.17 236.184 20.39 237.064 21.09C237.944 21.79 239.044 22.14 240.364 22.14C242.404 22.14 243.424 21.49 243.424 20.19C243.424 19.63 243.174 19.21 242.674 18.93C241.894 18.49 240.894 18.15 239.674 17.91C238.314 17.55 237.174 17.07 236.254 16.47C235.154 15.75 234.604 14.61 234.604 13.05C234.604 11.49 235.084 10.25 236.044 9.33C237.004 8.39 238.284 7.92 239.884 7.92C240.864 7.92 241.874 8.15 242.914 8.61C243.294 8.77 243.584 8.85 243.784 8.85C243.984 8.85 244.154 8.78 244.294 8.64C244.434 8.5 244.604 8.24 244.804 7.86H245.134V12.45H244.774C243.754 9.85 242.174 8.55 240.034 8.55C239.094 8.55 238.394 8.72 237.934 9.06C237.474 9.38 237.244 9.79 237.244 10.29C237.244 10.59 237.314 10.83 237.454 11.01C237.594 11.17 237.704 11.29 237.784 11.37C237.864 11.45 237.994 11.54 238.174 11.64C238.354 11.72 238.504 11.79 238.624 11.85C238.744 11.89 238.924 11.95 239.164 12.03C239.424 12.11 239.614 12.16 239.734 12.18C241.094 12.52 242.074 12.82 242.674 13.08C243.274 13.32 243.844 13.62 244.384 13.98C245.484 14.74 246.034 15.97 246.034 17.67C246.034 19.35 245.534 20.63 244.534 21.51C243.534 22.37 242.164 22.8 240.424 22.8C239.184 22.8 237.984 22.51 236.824 21.93C236.584 21.77 236.394 21.69 236.254 21.69C235.814 21.69 235.384 22.06 234.964 22.8H234.604ZM11.8072 36.5H27.4072L27.7072 42.44H27.1672C26.3272 40.42 25.4472 39.04 24.5272 38.3C23.6072 37.54 22.2572 37.16 20.4772 37.16H19.4272V46.43H20.4472C21.3872 46.43 22.1772 46.08 22.8172 45.38C23.4572 44.66 23.9072 43.7 24.1672 42.5H24.6172V51.38H24.1072C23.7472 49.88 23.2572 48.81 22.6372 48.17C22.0372 47.53 21.2072 47.21 20.1472 47.21H19.4272V56.84H20.5672C22.4072 56.84 23.9672 56.29 25.2472 55.19C26.5472 54.09 27.4372 52.68 27.9172 50.96H28.5172L28.2772 57.5H11.8072V56.84H13.5772V37.16H11.8072V36.5ZM28.4038 43.76V43.22H37.3738V43.76H35.4838L39.0838 53.72L42.3238 43.76H40.3138V43.22H44.3638V43.76H43.0438L38.6038 57.5H35.1838L29.6338 43.76H28.4038ZM51.7989 57.8C49.2189 57.8 47.2789 57.14 45.9789 55.82C44.6989 54.48 44.0589 52.63 44.0589 50.27C44.0589 47.89 44.7789 46.07 46.2189 44.81C47.6789 43.55 49.5289 42.92 51.7689 42.92C56.3089 42.92 58.4889 45.2 58.3089 49.76H49.8489V50.93C49.8489 52.89 50.0989 54.37 50.5989 55.37C51.0989 56.37 51.9689 56.87 53.2089 56.87C55.5289 56.87 57.0489 55.63 57.7689 53.15L58.3089 53.24C57.9289 54.68 57.2389 55.8 56.2389 56.6C55.2589 57.4 53.7789 57.8 51.7989 57.8ZM49.8789 49.16H52.9689V47.69C52.9689 46.07 52.8689 44.97 52.6689 44.39C52.4889 43.79 52.1089 43.49 51.5289 43.49C50.9689 43.49 50.5489 43.81 50.2689 44.45C50.0089 45.07 49.8789 46.15 49.8789 47.69V49.16ZM69.3976 44.06C68.6576 44.06 68.0076 44.54 67.4476 45.5C66.8876 46.46 66.6076 47.6 66.6076 48.92V56.96H68.7376V57.5H59.3776V56.96H61.0276V43.76H59.3776V43.22H66.6076V46.1C66.8676 45.08 67.3676 44.3 68.1076 43.76C68.8476 43.2 69.6876 42.92 70.6276 42.92C71.5676 42.92 72.3276 43.19 72.9076 43.73C73.5076 44.25 73.8076 45 73.8076 45.98C73.8076 46.94 73.5876 47.68 73.1476 48.2C72.7076 48.72 72.0276 48.98 71.1076 48.98C70.2076 48.98 69.5376 48.68 69.0976 48.08C68.6776 47.48 68.6276 46.65 68.9476 45.59H70.0276C70.5276 44.57 70.3176 44.06 69.3976 44.06ZM73.6417 43.76V43.22H82.3417V43.76H80.7217L83.9917 53.72L87.4717 43.76H85.4617V43.22H89.6917V43.76H88.1917L82.5817 59.93C81.9217 61.81 81.1817 63.12 80.3617 63.86C79.5417 64.62 78.5417 65 77.3617 65C76.1817 65 75.2517 64.73 74.5717 64.19C73.8917 63.65 73.5517 62.96 73.5517 62.12C73.5517 61.28 73.7717 60.64 74.2117 60.2C74.6517 59.76 75.2317 59.54 75.9517 59.54C77.6117 59.54 78.4417 60.23 78.4417 61.61C78.4417 61.91 78.3817 62.27 78.2617 62.69H77.2117C77.0517 63.15 77.0317 63.53 77.1517 63.83C77.2717 64.13 77.5417 64.28 77.9617 64.28C78.7817 64.28 79.5117 63.87 80.1517 63.05C80.7917 62.25 81.4017 61.02 81.9817 59.36L82.6417 57.5H80.0017L74.8717 43.76H73.6417ZM106.549 57.2C107.529 57.2 108.149 57.02 108.409 56.66C108.689 56.3 108.829 55.69 108.829 54.83V49.01H106.909V48.35H115.549V49.01H114.379V57.47H113.929C113.569 56.97 113.059 56.72 112.399 56.72C112.119 56.72 111.279 56.9 109.879 57.26C108.499 57.62 107.319 57.8 106.339 57.8C103.079 57.8 100.549 56.92 98.7491 55.16C96.9691 53.4 96.0791 50.76 96.0791 47.24C96.0791 43.7 97.0091 40.97 98.8691 39.05C100.749 37.13 103.269 36.17 106.429 36.17C107.649 36.17 108.869 36.33 110.089 36.65C111.329 36.95 112.049 37.1 112.249 37.1C112.449 37.1 112.599 37.06 112.699 36.98C112.799 36.88 112.909 36.72 113.029 36.5H113.359L113.599 43.01H113.059C112.079 41.07 111.089 39.55 110.089 38.45C109.109 37.33 108.009 36.77 106.789 36.77C103.729 36.77 102.199 39.76 102.199 45.74V48.11C102.199 51.11 102.569 53.38 103.309 54.92C104.069 56.44 105.149 57.2 106.549 57.2ZM126.849 44.06C126.109 44.06 125.459 44.54 124.899 45.5C124.339 46.46 124.059 47.6 124.059 48.92V56.96H126.189V57.5H116.829V56.96H118.479V43.76H116.829V43.22H124.059V46.1C124.319 45.08 124.819 44.3 125.559 43.76C126.299 43.2 127.139 42.92 128.079 42.92C129.019 42.92 129.779 43.19 130.359 43.73C130.959 44.25 131.259 45 131.259 45.98C131.259 46.94 131.039 47.68 130.599 48.2C130.159 48.72 129.479 48.98 128.559 48.98C127.659 48.98 126.989 48.68 126.549 48.08C126.129 47.48 126.079 46.65 126.399 45.59H127.479C127.979 44.57 127.769 44.06 126.849 44.06ZM139.426 57.8C136.846 57.8 134.906 57.14 133.606 55.82C132.326 54.48 131.686 52.63 131.686 50.27C131.686 47.89 132.406 46.07 133.846 44.81C135.306 43.55 137.156 42.92 139.396 42.92C143.936 42.92 146.116 45.2 145.936 49.76H137.476V50.93C137.476 52.89 137.726 54.37 138.226 55.37C138.726 56.37 139.596 56.87 140.836 56.87C143.156 56.87 144.676 55.63 145.396 53.15L145.936 53.24C145.556 54.68 144.866 55.8 143.866 56.6C142.886 57.4 141.406 57.8 139.426 57.8ZM137.506 49.16H140.596V47.69C140.596 46.07 140.496 44.97 140.296 44.39C140.116 43.79 139.736 43.49 139.156 43.49C138.596 43.49 138.176 43.81 137.896 44.45C137.636 45.07 137.506 46.15 137.506 47.69V49.16ZM154.205 50.45H155.075V48.14C155.075 46.24 154.965 44.97 154.745 44.33C154.545 43.67 154.145 43.34 153.545 43.34C153.185 43.34 152.855 43.44 152.555 43.64C152.275 43.82 152.135 44.08 152.135 44.42C152.135 44.74 152.195 45.07 152.315 45.41H153.065C153.225 45.83 153.305 46.34 153.305 46.94C153.305 47.52 153.055 48.03 152.555 48.47C152.055 48.89 151.425 49.1 150.665 49.1C148.945 49.1 148.085 48.27 148.085 46.61C148.085 44.15 150.175 42.92 154.355 42.92C156.735 42.92 158.375 43.33 159.275 44.15C160.195 44.95 160.655 46.43 160.655 48.59V54.68C160.655 55.72 160.945 56.24 161.525 56.24C162.205 56.24 162.605 55.21 162.725 53.15L163.175 53.18C163.095 54.94 162.765 56.15 162.185 56.81C161.605 57.47 160.655 57.8 159.335 57.8C156.935 57.8 155.555 57.06 155.195 55.58C154.935 56.34 154.545 56.9 154.025 57.26C153.505 57.62 152.745 57.8 151.745 57.8C148.785 57.8 147.305 56.59 147.305 54.17C147.305 52.75 147.865 51.78 148.985 51.26C150.125 50.72 151.865 50.45 154.205 50.45ZM153.005 54.14C153.005 55.18 153.055 55.85 153.155 56.15C153.275 56.45 153.485 56.6 153.785 56.6C154.105 56.6 154.395 56.35 154.655 55.85C154.935 55.33 155.075 54.62 155.075 53.72V50.93H154.865C153.625 50.93 153.005 51.84 153.005 53.66V54.14ZM164.53 53.21V43.76H162.88V43.22H164.53V39.35L170.11 37.97V43.22H174.01V43.76H170.11V53.87C170.11 54.81 170.2 55.5 170.38 55.94C170.58 56.38 170.98 56.6 171.58 56.6C172.18 56.6 172.7 56.3 173.14 55.7C173.6 55.1 173.9 54.28 174.04 53.24L174.55 53.3C174.39 54.68 173.95 55.78 173.23 56.6C172.51 57.4 171.32 57.8 169.66 57.8C168 57.8 166.73 57.47 165.85 56.81C164.97 56.15 164.53 54.95 164.53 53.21ZM174.897 43.22H182.127V45.98C182.447 45.06 182.937 44.32 183.597 43.76C184.257 43.2 185.257 42.92 186.597 42.92C189.697 42.92 191.247 44.59 191.247 47.93V56.96H192.927V57.5H184.437V56.96H185.667V47.21C185.667 46.01 185.587 45.24 185.427 44.9C185.267 44.54 184.977 44.36 184.557 44.36C183.917 44.36 183.347 44.78 182.847 45.62C182.367 46.46 182.127 47.48 182.127 48.68V56.96H183.417V57.5H174.897V56.96H176.547V43.76H174.897V43.22ZM201.213 57.8C198.633 57.8 196.693 57.14 195.393 55.82C194.113 54.48 193.473 52.63 193.473 50.27C193.473 47.89 194.193 46.07 195.633 44.81C197.093 43.55 198.943 42.92 201.183 42.92C205.723 42.92 207.903 45.2 207.723 49.76H199.263V50.93C199.263 52.89 199.513 54.37 200.013 55.37C200.513 56.37 201.383 56.87 202.623 56.87C204.943 56.87 206.463 55.63 207.183 53.15L207.723 53.24C207.343 54.68 206.653 55.8 205.653 56.6C204.673 57.4 203.193 57.8 201.213 57.8ZM199.293 49.16H202.383V47.69C202.383 46.07 202.283 44.97 202.083 44.39C201.903 43.79 201.523 43.49 200.943 43.49C200.383 43.49 199.963 43.81 199.683 44.45C199.423 45.07 199.293 46.15 199.293 47.69V49.16ZM209.189 57.8V52.43H209.549C210.069 54.17 210.769 55.39 211.649 56.09C212.529 56.79 213.629 57.14 214.949 57.14C216.989 57.14 218.009 56.49 218.009 55.19C218.009 54.63 217.759 54.21 217.259 53.93C216.479 53.49 215.479 53.15 214.259 52.91C212.899 52.55 211.759 52.07 210.839 51.47C209.739 50.75 209.189 49.61 209.189 48.05C209.189 46.49 209.669 45.25 210.629 44.33C211.589 43.39 212.869 42.92 214.469 42.92C215.449 42.92 216.459 43.15 217.499 43.61C217.879 43.77 218.169 43.85 218.369 43.85C218.569 43.85 218.739 43.78 218.879 43.64C219.019 43.5 219.189 43.24 219.389 42.86H219.719V47.45H219.359C218.339 44.85 216.759 43.55 214.619 43.55C213.679 43.55 212.979 43.72 212.519 44.06C212.059 44.38 211.829 44.79 211.829 45.29C211.829 45.59 211.899 45.83 212.039 46.01C212.179 46.17 212.289 46.29 212.369 46.37C212.449 46.45 212.579 46.54 212.759 46.64C212.939 46.72 213.089 46.79 213.209 46.85C213.329 46.89 213.509 46.95 213.749 47.03C214.009 47.11 214.199 47.16 214.319 47.18C215.679 47.52 216.659 47.82 217.259 48.08C217.859 48.32 218.429 48.62 218.969 48.98C220.069 49.74 220.619 50.97 220.619 52.67C220.619 54.35 220.119 55.63 219.119 56.51C218.119 57.37 216.749 57.8 215.009 57.8C213.769 57.8 212.569 57.51 211.409 56.93C211.169 56.77 210.979 56.69 210.839 56.69C210.399 56.69 209.969 57.06 209.549 57.8H209.189ZM222.197 57.8V52.43H222.557C223.077 54.17 223.777 55.39 224.657 56.09C225.537 56.79 226.637 57.14 227.957 57.14C229.997 57.14 231.017 56.49 231.017 55.19C231.017 54.63 230.767 54.21 230.267 53.93C229.487 53.49 228.487 53.15 227.267 52.91C225.907 52.55 224.767 52.07 223.847 51.47C222.747 50.75 222.197 49.61 222.197 48.05C222.197 46.49 222.677 45.25 223.637 44.33C224.597 43.39 225.877 42.92 227.477 42.92C228.457 42.92 229.467 43.15 230.507 43.61C230.887 43.77 231.177 43.85 231.377 43.85C231.577 43.85 231.747 43.78 231.887 43.64C232.027 43.5 232.197 43.24 232.397 42.86H232.727V47.45H232.367C231.347 44.85 229.767 43.55 227.627 43.55C226.687 43.55 225.987 43.72 225.527 44.06C225.067 44.38 224.837 44.79 224.837 45.29C224.837 45.59 224.907 45.83 225.047 46.01C225.187 46.17 225.297 46.29 225.377 46.37C225.457 46.45 225.587 46.54 225.767 46.64C225.947 46.72 226.097 46.79 226.217 46.85C226.337 46.89 226.517 46.95 226.757 47.03C227.017 47.11 227.207 47.16 227.327 47.18C228.687 47.52 229.667 47.82 230.267 48.08C230.867 48.32 231.437 48.62 231.977 48.98C233.077 49.74 233.627 50.97 233.627 52.67C233.627 54.35 233.127 55.63 232.127 56.51C231.127 57.37 229.757 57.8 228.017 57.8C226.777 57.8 225.577 57.51 224.417 56.93C224.177 56.77 223.987 56.69 223.847 56.69C223.407 56.69 222.977 57.06 222.557 57.8H222.197Z" fill="white"/>
</svg>
